<?xml version="1.0" encoding="utf-8"?>
<!-- Generator: Adobe Illustrator 23.0.3, SVG Export Plug-In . SVG Version: 6.00 Build 0)  -->
<svg version="1.1" id="Layer_1" xmlns="http://www.w3.org/2000/svg" xmlns:xlink="http://www.w3.org/1999/xlink" x="0px" y="0px"
	 viewBox="0 0 350 100" style="enable-background:new 0 0 350 100;" xml:space="preserve">
<style type="text/css">
	.st0{fill:#231F20;}
</style>
<g>
	<g>
		<polygon class="st0" points="143.1,45.2 105.4,0.9 2,39.1 105.4,17.5 		"/>
		<polygon class="st0" points="2,52.8 105.4,45.3 143.1,50.7 105.4,27.2 		"/>
		<polygon class="st0" points="2,74.1 105.1,97.5 143.1,65.1 105.1,81 		"/>
		<polygon class="st0" points="2,63.4 105.1,72.6 143.1,57.6 105.1,56.2 		"/>
	</g>
	<g>
		<g>
			<path class="st0" d="M167.1,28.4l-5.2,13.8h-3.4l-3.1-10.5l-3,10.5H149l-5.2-13.8h4l2.8,10.4l2.8-10.4h4l2.8,10.5l2.8-10.5H167.1
				z"/>
			<path class="st0" d="M183.1,42.2h-13.8V28.4h13.4v2.4h-9.6v3.1h8.8v2.4h-8.8v3.6h10V42.2z"/>
			<path class="st0" d="M200.3,38.2c0,1.4-0.7,2.6-2,3.3c-1.4,0.8-3.3,1.2-5.7,1.2c-2.2,0-4-0.4-5.2-1.2c-1.3-0.8-2-1.9-2.2-3.3h3.7
				c0.3,1.5,1.6,2.2,4.1,2.2c1.1,0,2.1-0.2,2.7-0.5s1-0.8,1-1.3c0-1-0.9-1.7-2.6-1.9l-4.5-0.6c-1.2-0.2-2.2-0.6-3-1.2
				c-0.8-0.6-1.2-1.4-1.2-2.3c0-1.4,0.6-2.4,1.9-3.2c1.2-0.8,2.9-1.2,5.1-1.2c2.3,0,4.1,0.4,5.4,1.2c1.3,0.8,1.9,1.9,1.9,3.3h-3.5
				c-0.1-0.7-0.4-1.2-1.2-1.6c-0.7-0.4-1.6-0.6-2.8-0.6c-2.2,0-3.2,0.6-3.2,1.8c0,0.8,0.7,1.3,2.2,1.5l3.9,0.6
				c1.8,0.3,3,0.7,3.8,1.1C199.8,36.1,200.3,37,200.3,38.2z"/>
			<path class="st0" d="M216.2,30.8h-5.4v11.5H207V30.8h-5.6v-2.4h14.8V30.8z"/>
			<path class="st0" d="M232.3,42.2h-13.8V28.4h13.4v2.4h-9.6v3.1h8.8v2.4h-8.8v3.6h10V42.2z"/>
			<path class="st0" d="M250.5,42.2h-4.1c-0.3-0.7-0.5-1.2-0.5-1.6v-2.1c0-0.6-0.1-1-0.3-1.2c-0.3-0.4-0.9-0.6-1.9-0.6h-4.5v5.5
				h-3.8V28.4h10.4c1.1,0,2.1,0.3,3,0.9c1,0.7,1.5,1.7,1.5,3c0,1.5-0.9,2.6-2.7,3.3c1.3,0.5,2,1.1,2,1.8l0.2,3.4
				c0,0.4,0.2,0.7,0.7,1V42.2z M246.7,32.4c0-1.1-0.7-1.6-2.2-1.6h-5.3v3.6h5.2c0.6,0,1.1-0.2,1.6-0.6
				C246.5,33.4,246.7,32.9,246.7,32.4z"/>
			<path class="st0" d="M268.4,42.2h-3.8l-7.4-9.7v9.7h-3.8V28.4h3.7l7.5,9.5v-9.5h3.8V42.2z"/>
			<g>
				<path class="st0" d="M292,38.2c0,1.4-0.7,2.6-2,3.3c-1.4,0.8-3.3,1.2-5.7,1.2c-2.2,0-4-0.4-5.2-1.2c-1.3-0.8-2-1.9-2.2-3.3h3.7
					c0.3,1.5,1.6,2.2,4.1,2.2c1.2,0,2.1-0.2,2.8-0.5c0.7-0.3,1-0.8,1-1.3c0-1-0.9-1.7-2.6-1.9l-4.5-0.6c-1.2-0.2-2.2-0.6-3-1.2
					c-0.8-0.6-1.2-1.4-1.2-2.3c0-1.4,0.6-2.4,1.9-3.2c1.2-0.8,2.9-1.2,5.1-1.2c2.3,0,4.1,0.4,5.4,1.2c1.3,0.8,1.9,1.9,1.9,3.3h-3.5
					c-0.1-0.7-0.4-1.2-1.2-1.6c-0.7-0.4-1.6-0.6-2.8-0.6c-2.2,0-3.2,0.6-3.2,1.8c0,0.8,0.7,1.3,2.2,1.5l3.9,0.6
					c1.8,0.3,3,0.7,3.8,1.1C291.5,36.1,292,37,292,38.2z"/>
				<path class="st0" d="M308.8,32.8c0,1.3-0.5,2.3-1.5,3.2c-1,0.9-2.2,1.3-3.5,1.3h-5.3v4.9h-3.8V28.4h8.7c1.8,0,3.1,0.4,4,1.2
					C308.4,30.4,308.8,31.4,308.8,32.8z M305.2,32.7c0-0.6-0.2-1-0.6-1.4c-0.4-0.3-1-0.5-1.7-0.5h-4.3v4.2h4.4
					c0.6,0,1.1-0.2,1.6-0.7C305,33.7,305.2,33.2,305.2,32.7z"/>
				<path class="st0" d="M329.7,42.2h-3.8V28.4h3.8V42.2z"/>
				<path class="st0" d="M348,42.2h-3.8l-7.4-9.7v9.7H333V28.4h3.7l7.5,9.5v-9.5h3.8V42.2z"/>
				<path class="st0" d="M323,42.1h-3.4l-1.1-2.7h-5.9l-1.1,2.7h-3.3l5.6-13.7h3.8L323,42.1z M317.8,37l-2.1-5.3l-2,5.3H317.8z"/>
			</g>
		</g>
		<g>
			<path class="st0" d="M182.7,54.1c0,1.3-0.5,2.3-1.5,3.2c-1,0.9-2.2,1.3-3.5,1.3h-5.3v4.9h-3.8V49.7h8.7c1.8,0,3.1,0.4,4,1.2
				C182.2,51.7,182.7,52.7,182.7,54.1z M179,54c0-0.6-0.2-1-0.6-1.4c-0.4-0.3-1-0.5-1.7-0.5h-4.3v4.2h4.4c0.6,0,1.1-0.2,1.6-0.7
				C178.8,55,179,54.5,179,54z"/>
			<path class="st0" d="M200.7,63.5h-4.1c-0.3-0.7-0.5-1.2-0.5-1.6v-2.1c0-0.6-0.1-1-0.3-1.2c-0.3-0.4-0.9-0.6-1.9-0.6h-4.5v5.5
				h-3.8V49.7h10.4c1.1,0,2.1,0.3,3,0.9c1,0.7,1.5,1.7,1.5,3c0,1.5-0.9,2.6-2.7,3.3c1.3,0.5,2,1.1,2,1.8L200,62c0,0.4,0.2,0.7,0.7,1
				V63.5z M196.8,53.7c0-1.1-0.7-1.6-2.2-1.6h-5.3v3.6h5.2c0.6,0,1.1-0.2,1.6-0.6C196.6,54.7,196.8,54.2,196.8,53.7z"/>
			<path class="st0" d="M220.6,56.7c0,2.2-0.8,3.9-2.5,5.2c-1.6,1.3-3.8,2-6.4,2c-2.8,0-5-0.7-6.6-2.1c-1.5-1.3-2.3-3-2.3-5.1
				c0-2,0.7-3.7,2.1-5c1.6-1.5,3.9-2.2,6.9-2.2c2.7,0,4.9,0.7,6.5,2.1C219.8,53,220.6,54.7,220.6,56.7z M216.9,56.7
				c0-1.5-0.5-2.7-1.4-3.5c-0.9-0.8-2.2-1.3-3.9-1.3c-1.6,0-2.9,0.4-3.8,1.3c-0.9,0.8-1.4,2-1.4,3.4c0,1.5,0.5,2.7,1.4,3.5
				c1,0.9,2.3,1.3,4,1.3c1.5,0,2.7-0.4,3.7-1.3C216.5,59.3,216.9,58.2,216.9,56.7z"/>
			<path class="st0" d="M237.5,54.1c0,1.3-0.5,2.3-1.5,3.2c-1,0.9-2.2,1.3-3.5,1.3h-5.3v4.9h-3.8V49.7h8.7c1.8,0,3.1,0.4,4,1.2
				C237,51.7,237.5,52.7,237.5,54.1z M233.8,54c0-0.6-0.2-1-0.6-1.4s-1-0.5-1.7-0.5h-4.3v4.2h4.4c0.6,0,1.1-0.2,1.6-0.7
				C233.6,55,233.8,54.5,233.8,54z"/>
			<path class="st0" d="M254.1,63.5h-13.8V49.7h13.4v2.4h-9.6v3.1h8.8v2.4h-8.8v3.6h10V63.5z"/>
			<path class="st0" d="M272.3,63.5h-4.1c-0.3-0.7-0.5-1.2-0.5-1.6v-2.1c0-0.6-0.1-1-0.3-1.2c-0.3-0.4-0.9-0.6-1.9-0.6H261v5.5h-3.8
				V49.7h10.4c1.1,0,2.1,0.3,3,0.9c1,0.7,1.5,1.7,1.5,3c0,1.5-0.9,2.6-2.7,3.3c1.3,0.5,2,1.1,2,1.8l0.2,3.4c0,0.4,0.2,0.7,0.7,1
				V63.5z M268.5,53.7c0-1.1-0.7-1.6-2.2-1.6H261v3.6h5.2c0.6,0,1.1-0.2,1.6-0.6C268.3,54.7,268.5,54.2,268.5,53.7z"/>
			<path class="st0" d="M288.6,52.1h-5.4v11.5h-3.8V52.1h-5.6v-2.4h14.8V52.1z"/>
			<path class="st0" d="M294.3,63.5h-3.8V49.7h3.8V63.5z"/>
			<path class="st0" d="M311.7,63.5h-13.8V49.7h13.4v2.4h-9.6v3.1h8.8v2.4h-8.8v3.6h10V63.5z"/>
			<path class="st0" d="M328.8,59.5c0,1.4-0.7,2.6-2,3.3c-1.4,0.8-3.3,1.2-5.7,1.2c-2.2,0-4-0.4-5.2-1.2c-1.3-0.8-2-1.9-2.2-3.3h3.7
				c0.3,1.5,1.6,2.2,4.1,2.2c1.2,0,2.1-0.2,2.8-0.5c0.7-0.3,1-0.8,1-1.3c0-1-0.9-1.7-2.6-1.9l-4.5-0.6c-1.2-0.2-2.2-0.6-3-1.2
				c-0.8-0.6-1.2-1.4-1.2-2.3c0-1.4,0.6-2.4,1.9-3.2c1.2-0.8,2.9-1.2,5.1-1.2c2.3,0,4.1,0.4,5.4,1.2c1.3,0.8,1.9,1.9,1.9,3.3h-3.5
				c-0.1-0.7-0.4-1.2-1.2-1.6c-0.7-0.4-1.6-0.6-2.8-0.6c-2.2,0-3.2,0.6-3.2,1.8c0,0.8,0.7,1.3,2.2,1.5l3.9,0.6
				c1.8,0.3,3,0.7,3.8,1.1C328.4,57.4,328.8,58.3,328.8,59.5z"/>
		</g>
		<g>
			<path class="st0" d="M199.8,76c0,0.6-0.2,1.2-0.6,1.6c-0.5,0.5-1.2,0.7-2,0.7h-3.7v-7.9h3.4c0.8,0,1.4,0.2,1.9,0.6
				c0.5,0.4,0.8,0.9,0.8,1.5c0,0.6-0.3,1.2-0.7,1.6C199.5,74.6,199.8,75.2,199.8,76z M198.1,72.6c0-0.6-0.3-0.9-1-0.9h-1.9v1.8h1.9
				C197.7,73.5,198.1,73.2,198.1,72.6z M198.3,75.8c0-0.6-0.4-0.9-1.1-0.9h-2.1v2.1h2.1C197.9,76.9,198.3,76.6,198.3,75.8z"/>
			<path class="st0" d="M207.2,78.3h-5.9v-7.9h5.7v1.4h-4.1v1.8h3.8v1.4h-3.8v2h4.3V78.3z"/>
			<path class="st0" d="M214.6,75.9c0,0.8-0.3,1.5-0.9,1.9c-0.6,0.4-1.4,0.7-2.4,0.7c-0.9,0-1.7-0.2-2.2-0.7c-0.6-0.5-0.9-1.1-1-1.9
				h1.6c0.1,0.9,0.7,1.3,1.8,1.3c0.5,0,0.9-0.1,1.2-0.3c0.3-0.2,0.4-0.4,0.4-0.8c0-0.6-0.4-1-1.1-1.1l-1.9-0.4
				c-0.5-0.1-1-0.3-1.3-0.7c-0.3-0.4-0.5-0.8-0.5-1.3c0-0.8,0.3-1.4,0.8-1.8c0.5-0.4,1.3-0.7,2.2-0.7c1,0,1.8,0.2,2.3,0.7
				c0.6,0.4,0.8,1.1,0.8,1.9h-1.5c0-0.4-0.2-0.7-0.5-0.9s-0.7-0.3-1.2-0.3c-0.9,0-1.4,0.3-1.4,1c0,0.4,0.3,0.7,0.9,0.9l1.7,0.3
				c0.8,0.2,1.3,0.4,1.6,0.7C214.4,74.8,214.6,75.3,214.6,75.9z"/>
			<path class="st0" d="M221.4,71.7h-2.3v6.6h-1.6v-6.6h-2.4v-1.4h6.3V71.7z"/>
			<path class="st0" d="M232.8,72.9c0,0.7-0.2,1.3-0.7,1.8c-0.4,0.5-0.9,0.7-1.5,0.7h-2.3v2.8h-1.6v-7.9h3.7c0.8,0,1.3,0.2,1.7,0.7
				C232.6,71.5,232.8,72.1,232.8,72.9z M231.2,72.8c0-0.3-0.1-0.6-0.3-0.8c-0.2-0.2-0.4-0.3-0.7-0.3h-1.9v2.4h1.9
				c0.3,0,0.5-0.1,0.7-0.4C231.1,73.4,231.2,73.1,231.2,72.8z"/>
			<path class="st0" d="M240.8,78.3h-1.7l-0.6-1.6h-2.9l-0.5,1.6h-1.7l2.8-7.9h1.9L240.8,78.3z M238.2,75.3l-1-3.1l-1,3.1H238.2z"/>
			<path class="st0" d="M248.3,78.3h-1.8c-0.1-0.4-0.2-0.7-0.2-0.9v-1.2c0-0.3,0-0.5-0.1-0.7c-0.1-0.2-0.4-0.3-0.8-0.3h-1.9v3.1
				h-1.6v-7.9h4.5c0.5,0,0.9,0.2,1.3,0.5c0.4,0.4,0.7,1,0.7,1.7c0,0.8-0.4,1.5-1.2,1.9c0.6,0.3,0.9,0.6,0.9,1l0.1,1.9
				c0,0.2,0.1,0.4,0.3,0.6V78.3z M246.7,72.7c0-0.6-0.3-0.9-0.9-0.9h-2.3v2.1h2.2c0.2,0,0.5-0.1,0.7-0.4
				C246.6,73.2,246.7,72.9,246.7,72.7z"/>
			<path class="st0" d="M255.3,71.7H253v6.6h-1.6v-6.6H249v-1.4h6.3V71.7z"/>
			<path class="st0" d="M262.6,78.3H261l-3.2-5.5v5.5h-1.6v-7.9h1.6l3.2,5.4v-5.4h1.6V78.3z"/>
			<path class="st0" d="M270.1,78.3h-5.9v-7.9h5.7v1.4h-4.1v1.8h3.8v1.4h-3.8v2h4.3V78.3z"/>
			<path class="st0" d="M277.9,78.3h-1.8c-0.1-0.4-0.2-0.7-0.2-0.9v-1.2c0-0.3,0-0.5-0.1-0.7c-0.1-0.2-0.4-0.3-0.8-0.3H273v3.1h-1.6
				v-7.9h4.5c0.5,0,0.9,0.2,1.3,0.5c0.4,0.4,0.7,1,0.7,1.7c0,0.8-0.4,1.5-1.2,1.9c0.6,0.3,0.9,0.6,0.9,1l0.1,1.9
				c0,0.2,0.1,0.4,0.3,0.6V78.3z M276.2,72.7c0-0.6-0.3-0.9-0.9-0.9H273v2.1h2.2c0.2,0,0.5-0.1,0.7-0.4
				C276.1,73.2,276.2,72.9,276.2,72.7z"/>
			<path class="st0" d="M285.3,75.9c0,0.8-0.3,1.5-0.9,1.9c-0.6,0.4-1.4,0.7-2.4,0.7c-0.9,0-1.7-0.2-2.2-0.7c-0.6-0.5-0.9-1.1-1-1.9
				h1.6c0.1,0.9,0.7,1.3,1.8,1.3c0.5,0,0.9-0.1,1.2-0.3c0.3-0.2,0.4-0.4,0.4-0.8c0-0.6-0.4-1-1.1-1.1l-1.9-0.4
				c-0.5-0.1-1-0.3-1.3-0.7c-0.3-0.4-0.5-0.8-0.5-1.3c0-0.8,0.3-1.4,0.8-1.8c0.5-0.4,1.3-0.7,2.2-0.7c1,0,1.8,0.2,2.3,0.7
				c0.6,0.4,0.8,1.1,0.8,1.9h-1.5c0-0.4-0.2-0.7-0.5-0.9c-0.3-0.2-0.7-0.3-1.2-0.3c-0.9,0-1.4,0.3-1.4,1c0,0.4,0.3,0.7,0.9,0.9
				l1.7,0.3c0.8,0.2,1.3,0.4,1.6,0.7C285,74.8,285.3,75.3,285.3,75.9z"/>
			<path class="st0" d="M292.7,78.3h-1.6v-3.6H288v3.6h-1.6v-7.9h1.6v3h3.1v-3h1.6V78.3z"/>
			<path class="st0" d="M295.8,78.3h-1.6v-7.9h1.6V78.3z"/>
			<path class="st0" d="M303.3,72.9c0,0.7-0.2,1.3-0.7,1.8c-0.4,0.5-0.9,0.7-1.5,0.7h-2.3v2.8h-1.6v-7.9h3.7c0.8,0,1.3,0.2,1.7,0.7
				C303.1,71.5,303.3,72.1,303.3,72.9z M301.8,72.8c0-0.3-0.1-0.6-0.3-0.8c-0.2-0.2-0.4-0.3-0.7-0.3h-1.9v2.4h1.9
				c0.3,0,0.5-0.1,0.7-0.4C301.7,73.4,301.8,73.1,301.8,72.8z"/>
		</g>
	</g>
</g>
</svg>
